<?xml version="1.0" encoding="UTF-8" standalone="no"?>
<svg width="55.0333mm" height="57.15mm"
 xmlns="http://www.w3.org/2000/svg" xmlns:xlink="http://www.w3.org/1999/xlink"  version="1.2" baseProfile="tiny">
<desc>Created by HiQPdf</desc>
<defs>
</defs>
<g fill="none" stroke="black" stroke-width="1" fill-rule="evenodd" stroke-linecap="square" stroke-linejoin="bevel" >

<g fill="#000000" fill-opacity="1" stroke="#000000" stroke-opacity="1" stroke-width="1" stroke-linecap="square" stroke-linejoin="miter" stroke-miterlimit="2" transform="matrix(1,0,0,1,0,0)"
>
</g>

<g fill="#000000" fill-opacity="1" stroke="#000000" stroke-opacity="1" stroke-width="1" stroke-linecap="square" stroke-linejoin="miter" stroke-miterlimit="2" transform="matrix(1,0,0,1,0,0)"
>
</g>

<g fill="#000000" fill-opacity="1" stroke="#000000" stroke-opacity="1" stroke-width="1" stroke-linecap="square" stroke-linejoin="miter" stroke-miterlimit="2" transform="matrix(1,0,0,1,0,0)"
>
</g>

<g fill="#000000" fill-opacity="1" stroke="#000000" stroke-opacity="1" stroke-width="1" stroke-linecap="square" stroke-linejoin="miter" stroke-miterlimit="2" transform="matrix(1,0,0,1,0,0)"
>
</g>

<g fill="#000000" fill-opacity="1" stroke="#000000" stroke-opacity="1" stroke-width="1" stroke-linecap="square" stroke-linejoin="miter" stroke-miterlimit="2" transform="matrix(8.33333,0,0,8.33333,8,8)"
>
</g>

<g fill="#000000" fill-opacity="1" stroke="none" transform="matrix(8.33333,0,0,8.33333,8,8)"
>
<path vector-effect="none" fill-rule="nonzero" d="M4.645,7.472 C6.745,8.002 9.424,8.272 12.653,8.272 C15.952,8.272 18.571,8.002 20.661,7.472 C22.891,6.952 23.96,6.252 23.96,5.592 C23.96,5.122 23.48,4.662 22.61,4.312 C22.81,4.442 22.96,4.662 22.96,4.902 C22.96,5.572 21.95,6.122 19.921,6.582 C18.041,6.992 15.642,7.282 12.723,7.282 C9.903,7.282 7.394,6.992 5.585,6.602 C3.635,6.122 2.615,5.602 2.615,4.922 C2.615,4.642 2.745,4.402 3.135,4.122 C1.915,4.592 1.255,4.992 1.255,5.592 C1.325,6.272 2.415,6.952 4.645,7.472 L4.645,7.472 M9.334,5.312 C11.604,5.112 12.263,3.653 14.922,3.413 C16.232,3.313 17.062,3.573 17.152,4.033 C17.232,4.463 16.582,4.753 15.792,4.813 C14.702,4.923 14.252,4.533 14.162,4.163 C13.352,4.253 13.222,4.593 13.262,4.833 C13.352,5.293 14.332,5.753 16.012,5.593 C17.912,5.443 18.552,4.693 18.392,3.943 C18.192,2.963 16.732,2.143 14.112,2.393 C10.753,2.693 10.773,4.253 8.484,4.443 C7.544,4.533 7.024,4.313 6.934,3.943 C6.874,3.573 7.334,3.393 7.874,3.353 C8.374,3.303 8.984,3.393 9.274,3.553 C9.484,3.443 9.554,3.333 9.534,3.203 C9.434,2.853 8.744,2.703 7.874,2.763 C6.174,2.913 6.174,3.673 6.234,4.013 C6.404,4.883 7.714,5.463 9.334,5.313 L9.334,5.312 M20.751,9.152 C18.651,9.642 15.972,9.961 12.743,9.961 C9.443,9.961 6.754,9.621 4.665,9.161 C2.785,8.681 1.785,8.151 1.435,7.601 C1.615,8.831 1.925,10.021 2.325,11.151 C1.845,11.451 1.415,11.821 1.025,12.321 C0.311554,13.1908 -0.0517945,14.2955 0.00599931,15.419 C0.0784677,16.4564 0.596262,17.4118 1.426,18.039 C2.296,18.719 3.236,18.919 4.305,18.719 C4.715,18.649 5.175,18.439 5.595,18.299 C4.715,18.299 3.975,18.019 3.235,17.429 C2.42287,16.865 1.88285,15.9879 1.745,15.009 C1.545,14.069 1.745,13.199 2.275,12.43 C2.395,12.28 2.525,12.15 2.665,12.03 C2.965,12.76 3.285,13.48 3.645,14.15 C4.455,15.38 5.265,16.449 6.075,17.609 C6.425,18.289 6.655,18.959 6.815,19.628 C7.35682,20.3763 8.14675,20.9079 9.044,21.128 C10.194,21.528 11.394,21.708 12.623,21.638 L12.753,21.638 C14.0042,21.6927 15.2547,21.5164 16.442,21.118 C17.3033,20.8661 18.0607,20.3437 18.602,19.628 L18.672,19.628 C18.802,18.958 19.022,18.288 19.342,17.608 C20.141,16.438 20.961,15.379 21.761,14.15 C22.8634,12.1093 23.62,9.90004 24,7.612 C23.57,8.212 22.56,8.742 20.75,9.152 L20.751,9.152"/>
</g>

<g fill="#000000" fill-opacity="1" stroke="#000000" stroke-opacity="1" stroke-width="1" stroke-linecap="square" stroke-linejoin="miter" stroke-miterlimit="2" transform="matrix(8.33333,0,0,8.33333,8,8)"
>
</g>

<g fill="#000000" fill-opacity="1" stroke="#000000" stroke-opacity="1" stroke-width="1" stroke-linecap="square" stroke-linejoin="miter" stroke-miterlimit="2" transform="matrix(8.33333,0,0,8.33333,8,8)"
>
</g>

<g fill="#000000" fill-opacity="1" stroke="#000000" stroke-opacity="1" stroke-width="1" stroke-linecap="square" stroke-linejoin="miter" stroke-miterlimit="2" transform="matrix(1,0,0,1,0,0)"
>
</g>

<g fill="#000000" fill-opacity="1" stroke="#000000" stroke-opacity="1" stroke-width="1" stroke-linecap="square" stroke-linejoin="miter" stroke-miterlimit="2" transform="matrix(1,0,0,1,0,0)"
>
</g>

<g fill="#000000" fill-opacity="1" stroke="#000000" stroke-opacity="1" stroke-width="1" stroke-linecap="square" stroke-linejoin="miter" stroke-miterlimit="2" transform="matrix(1,0,0,1,0,0)"
>
</g>

<g fill="#000000" fill-opacity="1" stroke="#000000" stroke-opacity="1" stroke-width="1" stroke-linecap="square" stroke-linejoin="miter" stroke-miterlimit="2" transform="matrix(1,0,0,1,0,0)"
>
</g>

<g fill="#000000" fill-opacity="1" stroke="#000000" stroke-opacity="1" stroke-width="1" stroke-linecap="square" stroke-linejoin="miter" stroke-miterlimit="2" transform="matrix(8.33333,0,0,8.33333,8,8)"
>
</g>

<g fill="#000000" fill-opacity="1" stroke="#000000" stroke-opacity="1" stroke-width="1" stroke-linecap="square" stroke-linejoin="miter" stroke-miterlimit="2" transform="matrix(1,0,0,1,0,0)"
>
</g>

<g fill="#000000" fill-opacity="1" stroke="#000000" stroke-opacity="1" stroke-width="1" stroke-linecap="square" stroke-linejoin="miter" stroke-miterlimit="2" transform="matrix(1,0,0,1,0,0)"
>
</g>

<g fill="#000000" fill-opacity="1" stroke="#000000" stroke-opacity="1" stroke-width="1" stroke-linecap="square" stroke-linejoin="miter" stroke-miterlimit="2" transform="matrix(1,0,0,1,0,0)"
>
</g>

<g fill="#000000" fill-opacity="1" stroke="#000000" stroke-opacity="1" stroke-width="1" stroke-linecap="square" stroke-linejoin="miter" stroke-miterlimit="2" transform="matrix(1,0,0,1,0,0)"
>
</g>

<g fill="#000000" fill-opacity="1" stroke="#000000" stroke-opacity="1" stroke-width="1" stroke-linecap="square" stroke-linejoin="miter" stroke-miterlimit="2" transform="matrix(1,0,0,1,0,0)"
>
</g>

<g fill="#000000" fill-opacity="1" stroke="#000000" stroke-opacity="1" stroke-width="1" stroke-linecap="square" stroke-linejoin="miter" stroke-miterlimit="2" transform="matrix(1,0,0,1,0,0)"
>
</g>
</g>
</svg>
